<svg width="47" height="46" viewBox="0 0 47 46" fill="none" xmlns="http://www.w3.org/2000/svg">
    <path d="M33.5705 41.7657C35.5687 33.9392 21.7241 29.6381 21.6025 29.6022C20.9539 29.4111 21.1617 28.8556 21.1617 28.8556C21.2812 28.4502 21.6246 28.3312 21.9489 28.4268C28.9002 30.2552 36.7705 26.2741 38.0848 21.8149C38.8614 19.1799 37.3151 16.6535 33.6052 14.5908C25.6251 10.1239 16.0367 10.514 10.4855 12.7552C7.28175 14.058 5.3966 15.9705 5.49091 17.8929C5.54772 18.7468 5.83849 19.4047 6.43205 19.9321C7.87906 21.1516 10.946 21.659 15.1893 21.015C17.305 20.7133 18.9625 20.3212 19.0436 20.3451C19.3632 20.3073 19.6519 20.5238 19.7424 20.8148C19.7803 21.1344 19.5914 21.4754 19.2599 21.554C19.2073 21.5826 17.5568 21.8014 15.4053 22.2247C8.91023 23.4827 8.01048 24.8919 7.94351 25.2687C7.77377 26.1439 9.5084 28.3295 14.9017 31.1086C17.4339 32.3836 19.394 33.3572 19.4631 33.4216C19.7349 33.5458 19.8426 33.93 19.7184 34.2018C19.5417 34.5022 19.1981 34.6219 18.8857 34.4858C18.8857 34.4858 16.8282 33.3944 14.3532 32.2244C10.7623 30.5052 5.788 28.9951 2.86798 30.3816C1.74912 30.8889 1.05723 31.7419 0.674908 33.0391C0.543381 33.485 0.451996 33.9428 0.418251 34.5056C-0.0425606 39.657 7.60649 43.4535 15.4142 44.9175C23.4245 46.4413 32.4118 45.6971 33.5468 41.846L33.5705 41.7657Z" fill="currentColor"/>
    <path d="M26.3887 9.29925C26.0134 7.48058 26.9063 4.29341 34.0245 5.04846C41.1428 5.80349 43.7762 7.98575 46.0292 12.0294C46.9086 13.6075 47.3838 16.4447 45.8808 17.447C41.7739 20.1861 38.4361 15.4991 32.0578 12.1326C27.2643 9.60254 26.7097 10.8547 26.3887 9.29925Z" fill="currentColor"/>
    <path d="M20.9055 9.08227C23.5524 6.30275 23.7951 5.9045 29.6407 3.94656C32.1475 3.10695 24.4682 -3.03112 19.1275 2.07699C14.9441 6.07803 15.3988 6.87349 16.7463 8.66319C17.3 9.39862 19.7208 10.3263 20.9055 9.08227Z" fill="currentColor"/>
    <path d="M11.3136 9.71753C11.8655 8.18886 12.9137 6.71062 14.4151 5.33544C16.986 2.98074 10.8619 1.90016 9.01065 2.67706C7.15923 3.45409 6.54112 6.47486 7.12196 8.39688C7.68053 10.2451 9.64429 11.2493 10.4493 11.0397C11.2543 10.8302 11.181 10.0847 11.3136 9.71753Z" fill="currentColor"/>
    </svg>
    