<svg xmlns="http://www.w3.org/2000/svg" version="1.1" xmlns:xlink="http://www.w3.org/1999/xlink" xmlns:svgjs="http://svgjs.dev/svgjs" width="17" height="17"><svg width="17" height="17" viewBox="0 0 17 17" fill="none" xmlns="http://www.w3.org/2000/svg">
<path d="M12.1239 15.1345C12.8122 12.3877 8.04379 10.8782 8.0019 10.8656C7.77851 10.7985 7.8501 10.6036 7.8501 10.6036C7.89123 10.4613 8.00951 10.4196 8.12121 10.4531C10.5154 11.0948 13.2261 9.6976 13.6788 8.13258C13.9462 7.20781 13.4137 6.32113 12.1359 5.59719C9.38736 4.02952 6.08492 4.16643 4.17297 4.95299C3.06953 5.41023 2.42024 6.08144 2.45273 6.75612C2.47229 7.05579 2.57244 7.28669 2.77687 7.47179C3.27526 7.8998 4.33158 8.07787 5.79305 7.85186C6.52174 7.74598 7.09264 7.60837 7.12056 7.61675C7.23064 7.60346 7.33008 7.67946 7.36124 7.78159C7.37429 7.89376 7.30925 8.01345 7.19505 8.04101C7.17696 8.05106 6.60849 8.12784 5.86746 8.27641C3.63041 8.71792 3.32052 9.21247 3.29745 9.34471C3.23899 9.65188 3.83644 10.4189 5.694 11.3943C6.56614 11.8418 7.24124 12.1835 7.26505 12.2061C7.35867 12.2497 7.39575 12.3845 7.35298 12.4799C7.29211 12.5853 7.17377 12.6273 7.06619 12.5795C7.06619 12.5795 6.35752 12.1965 5.50508 11.7859C4.26831 11.1825 2.55505 10.6525 1.54933 11.1391C1.16397 11.3172 0.925668 11.6166 0.793987 12.0718C0.748686 12.2283 0.717211 12.389 0.705589 12.5865C0.546875 14.3945 3.18137 15.7269 5.87051 16.2407C8.62946 16.7755 11.7248 16.5143 12.1158 15.1627L12.1239 15.1345Z" fill="#00C189"></path>
<path d="M9.65104 3.74024C9.52178 3.10196 9.82931 1.98339 12.281 2.24838C14.7326 2.51337 15.6397 3.27925 16.4157 4.69841C16.7185 5.25227 16.8822 6.248 16.3645 6.59979C14.95 7.56108 13.8004 5.91613 11.6036 4.73462C9.95261 3.84668 9.7616 4.28614 9.65104 3.74024Z" fill="#00C189"></path>
<path d="M7.76236 3.66408C8.67403 2.68858 8.75761 2.54881 10.771 1.86165C11.6344 1.56698 8.98945 -0.587239 7.14998 1.2055C5.70915 2.60971 5.86576 2.88889 6.32986 3.517C6.52058 3.77511 7.35434 4.10068 7.76236 3.66408Z" fill="#00C189"></path>
<path d="M4.45909 3.88704C4.64918 3.35054 5.0102 2.83174 5.52732 2.3491C6.41279 1.5227 4.3035 1.14345 3.6659 1.41612C3.02824 1.68882 2.81535 2.74899 3.0154 3.42355C3.20778 4.07219 3.88414 4.42464 4.16141 4.35109C4.43868 4.27754 4.41343 4.01592 4.45909 3.88704Z" fill="#00C189"></path>
</svg><style>@media (prefers-color-scheme: light) { :root { filter: none; } }
@media (prefers-color-scheme: dark) { :root { filter: none; } }
</style></svg>