<?xml version="1.0" encoding="UTF-8" standalone="no"?>
<!-- Created with Inkscape (http://www.inkscape.org/) -->

<svg
   width="150.00002"
   height="150.00002"
   viewBox="0 0 150.00002 150.00002"
   version="1.1"
   id="svg1"
   xml:space="preserve"
   inkscape:version="1.3.2 (091e20ef0f, 2023-11-25, custom)"
   sodipodi:docname="brand-manual-manabe.svg"
   xmlns:inkscape="http://www.inkscape.org/namespaces/inkscape"
   xmlns:sodipodi="http://sodipodi.sourceforge.net/DTD/sodipodi-0.dtd"
   xmlns="http://www.w3.org/2000/svg"
   xmlns:svg="http://www.w3.org/2000/svg"><sodipodi:namedview
     id="namedview1"
     pagecolor="#ffffff"
     bordercolor="#000000"
     borderopacity="0.25"
     inkscape:showpageshadow="2"
     inkscape:pageopacity="0.0"
     inkscape:pagecheckerboard="0"
     inkscape:deskcolor="#d1d1d1"
     inkscape:document-units="px"
     showguides="true"
     inkscape:zoom="1.1893651"
     inkscape:cx="168.99773"
     inkscape:cy="696.59015"
     inkscape:window-width="1366"
     inkscape:window-height="740"
     inkscape:window-x="0"
     inkscape:window-y="0"
     inkscape:window-maximized="1"
     inkscape:current-layer="layer1" /><defs
     id="defs1" /><g
     inkscape:label="Layer 1"
     inkscape:groupmode="layer"
     id="layer1"
     transform="translate(-351.11977,-641.4086)"><path
       id="path13"
       style="fill:#afdab8;fill-opacity:1;stroke:none;stroke-width:11;stroke-linecap:round;stroke-linejoin:round;stroke-dasharray:none"
       d="m 426.11974,641.40857 a 75.000127,75.000127 0 0 0 -36.14844,9.50335 c 0.329,0.002 0.6364,0.16928 0.86054,0.5055 2.70286,4.50476 6.00661,10.66158 9.91073,18.16952 h 18.16953 c -3.15334,-6.00634 -5.7066,-10.51072 -7.5085,-13.66405 -0.30031,-0.60063 1.6e-4,-1.2012 0.6008,-1.50151 l 11.71217,-4.80541 c 0.45048,-0.15017 0.90127,-1.1e-4 1.20159,0.45037 3.75396,6.15651 7.20803,12.76346 10.51152,19.5206 h 16.06628 c 4.05427,-6.45682 7.50835,-12.61287 10.51155,-18.76938 0.0248,-0.075 0.0701,-0.12944 0.11118,-0.18781 a 75.000127,75.000127 0 0 0 -35.99895,-9.22118 z m 47.9849,17.37345 c -1.71057,3.27818 -3.77599,6.83624 -6.09106,10.80492 h 16.67361 a 75.000127,75.000127 0 0 0 -10.58255,-10.80492 z m -96.00063,0.12334 a 75.000127,75.000127 0 0 0 -10.38259,10.68158 h 16.35314 c -1.99045,-3.84821 -3.98009,-7.40606 -5.97055,-10.68158 z m 109.88053,15.13193 v 30.83754 c 0,0.60067 -0.44958,1.05023 -1.0502,1.05023 h -13.0642 c -0.60068,0 -1.05117,-0.44956 -1.05117,-1.05023 v -22.52457 h -93.39845 v 22.52457 c 0,0.60067 -0.45052,1.05023 -1.05114,1.05023 h -13.06421 c -0.60063,0 -1.05114,-0.44956 -1.05114,-1.05023 v -30.65627 a 75.000127,75.000127 0 0 0 -13.13427,42.19 75.000127,75.000127 0 0 0 74.99998,75.00001 75.000127,75.000127 0 0 0 75,-75.00001 75.000127,75.000127 0 0 0 -13.1352,-42.37127 z m -100.90602,18.67406 h 78.08246 c 0.60067,0 1.05112,0.45055 1.05112,1.05117 v 11.86263 c 0,0.15016 -2.4e-4,0.30019 -0.15041,0.45035 0,0.15017 -0.15045,0.30087 -0.15045,0.30087 -8.10855,9.00954 -17.26803,16.96781 -27.62896,24.62595 h 53.75736 c 0.60062,0 1.05117,0.4505 1.05117,1.05112 v 11.41227 c 0,0.60062 -0.45055,1.05021 -1.05117,1.05021 h -55.5588 v 21.62291 c 0,7.80827 -1.05124,12.61337 -3.15346,14.41528 -2.10222,1.8019 -7.80854,2.70311 -17.11838,2.70311 -3.00317,0 -10.66109,-0.29981 -22.52363,-0.75027 -0.60063,0 -1.05115,-0.45121 -1.05115,-0.90167 l -0.75123,-11.56177 c 0,-0.60063 0.60095,-1.20158 1.20159,-1.20158 11.11175,0.4505 18.16871,0.75121 21.32205,0.75121 2.85302,0 4.65578,-0.30071 5.10626,-0.75121 0.45048,-0.45045 0.7503,-1.95146 0.7503,-4.80448 v -19.52153 h -60.06334 c -0.60064,0 -1.05116,-0.44959 -1.05116,-1.05021 v -11.41227 c 0,-0.60062 0.45052,-1.05112 1.05116,-1.05112 h 60.06334 v -10.8115 c 0,-0.60062 0.45051,-1.05113 1.05115,-1.05113 h 8.55872 c 6.30667,-4.80509 11.56219,-9.16032 15.91679,-13.21463 h -58.71133 c -0.60063,0 -1.05115,-0.44956 -1.05115,-1.05023 v -11.11231 c 0,-0.60062 0.45052,-1.05117 1.05115,-1.05117 z"
       inkscape:export-filename="icon-150x150px-platinum.svg"
       inkscape:export-xdpi="96"
       inkscape:export-ydpi="96" /></g></svg>
